<?xml version="1.0" encoding="UTF-8" standalone="no"?>
<!-- Generator: Adobe Illustrator 18.0.0, SVG Export Plug-In . SVG Version: 6.00 Build 0)  -->

<svg
   xmlns:dc="http://purl.org/dc/elements/1.1/"
   xmlns:cc="http://creativecommons.org/ns#"
   xmlns:rdf="http://www.w3.org/1999/02/22-rdf-syntax-ns#"
   xmlns:svg="http://www.w3.org/2000/svg"
   xmlns="http://www.w3.org/2000/svg"
   xmlns:xlink="http://www.w3.org/1999/xlink"
   xmlns:sodipodi="http://sodipodi.sourceforge.net/DTD/sodipodi-0.dtd"
   xmlns:inkscape="http://www.inkscape.org/namespaces/inkscape"
   version="1.1"
   id="レイヤー_1"
   x="0px"
   y="0px"
   viewBox="0 0 125 50"
   enable-background="new 0 0 160 110"
   xml:space="preserve"
   sodipodi:docname="HPhi++.svg"
   width="125"
   height="50"
   inkscape:version="0.92.3 (2405546, 2018-03-11)"
   inkscape:export-filename="C:\Users\kawamuura\program\hphi\hphi\doc\figs\HPhi++.png"
   inkscape:export-xdpi="90"
   inkscape:export-ydpi="90"><metadata
   id="metadata17"><rdf:RDF><cc:Work
       rdf:about=""><dc:format>image/svg+xml</dc:format><dc:type
         rdf:resource="http://purl.org/dc/dcmitype/StillImage" /><dc:title></dc:title></cc:Work></rdf:RDF></metadata><defs
   id="defs15"><linearGradient
     inkscape:collect="always"
     id="linearGradient4718"><stop
       style="stop-color:#001815;stop-opacity:1;"
       offset="0"
       id="stop4714" /><stop
       style="stop-color:#001815;stop-opacity:0;"
       offset="1"
       id="stop4716" /></linearGradient><linearGradient
     inkscape:collect="always"
     id="linearGradient4704"><stop
       style="stop-color:#001815;stop-opacity:1;"
       offset="0"
       id="stop4700" /><stop
       style="stop-color:#001815;stop-opacity:0;"
       offset="1"
       id="stop4702" /></linearGradient><linearGradient
     inkscape:collect="always"
     id="linearGradient4696"><stop
       style="stop-color:#001815;stop-opacity:1;"
       offset="0"
       id="stop4692" /><stop
       style="stop-color:#001815;stop-opacity:0;"
       offset="1"
       id="stop4694" /></linearGradient><linearGradient
     inkscape:collect="always"
     id="linearGradient4688"><stop
       style="stop-color:#001815;stop-opacity:1;"
       offset="0"
       id="stop4684" /><stop
       style="stop-color:#001815;stop-opacity:0;"
       offset="1"
       id="stop4686" /></linearGradient><linearGradient
     inkscape:collect="always"
     id="linearGradient4680"><stop
       style="stop-color:#001815;stop-opacity:1;"
       offset="0"
       id="stop4676" /><stop
       style="stop-color:#001815;stop-opacity:0;"
       offset="1"
       id="stop4678" /></linearGradient><linearGradient
     inkscape:collect="always"
     id="linearGradient4664"><stop
       style="stop-color:#001815;stop-opacity:1;"
       offset="0"
       id="stop4660" /><stop
       style="stop-color:#001815;stop-opacity:0;"
       offset="1"
       id="stop4662" /></linearGradient><linearGradient
     inkscape:collect="always"
     id="linearGradient4636"><stop
       style="stop-color:#001815;stop-opacity:1;"
       offset="0"
       id="stop4632" /><stop
       style="stop-color:#001815;stop-opacity:0;"
       offset="1"
       id="stop4634" /></linearGradient><linearGradient
     inkscape:collect="always"
     xlink:href="#linearGradient4636"
     id="linearGradient4642"
     x1="7.7437954"
     y1="33.179161"
     x2="8.580102"
     y2="61.14526"
     gradientUnits="userSpaceOnUse" /><linearGradient
     inkscape:collect="always"
     xlink:href="#linearGradient4664"
     id="linearGradient4666"
     x1="37.835712"
     y1="41.045013"
     x2="37.359489"
     y2="50.65836"
     gradientUnits="userSpaceOnUse" /><linearGradient
     inkscape:collect="always"
     xlink:href="#linearGradient4680"
     id="linearGradient4682"
     x1="74.03772"
     y1="19.789949"
     x2="70.62027"
     y2="23.635288"
     gradientUnits="userSpaceOnUse" /><linearGradient
     inkscape:collect="always"
     xlink:href="#linearGradient4688"
     id="linearGradient4690"
     x1="73.88369"
     y1="41.402241"
     x2="73.034531"
     y2="49.209446"
     gradientUnits="userSpaceOnUse" /><linearGradient
     inkscape:collect="always"
     xlink:href="#linearGradient4696"
     id="linearGradient4698"
     x1="87.035583"
     y1="40.918659"
     x2="85.418068"
     y2="50.823322"
     gradientUnits="userSpaceOnUse" /><linearGradient
     inkscape:collect="always"
     xlink:href="#linearGradient4704"
     id="linearGradient4706"
     x1="109.30322"
     y1="39.877472"
     x2="108.24848"
     y2="50.947388"
     gradientUnits="userSpaceOnUse" /><linearGradient
     inkscape:collect="always"
     xlink:href="#linearGradient4718"
     id="linearGradient4720"
     x1="26.94351"
     y1="37.144741"
     x2="26.964544"
     y2="54.468857"
     gradientUnits="userSpaceOnUse" /></defs><sodipodi:namedview
   pagecolor="#ffffff"
   bordercolor="#666666"
   borderopacity="1"
   objecttolerance="10"
   gridtolerance="10"
   guidetolerance="10"
   inkscape:pageopacity="0"
   inkscape:pageshadow="2"
   inkscape:window-width="2160"
   inkscape:window-height="1346"
   id="namedview13"
   showgrid="false"
   inkscape:snap-global="false"
   inkscape:zoom="11.313709"
   inkscape:cx="63.419852"
   inkscape:cy="3.2105146"
   inkscape:window-x="-11"
   inkscape:window-y="49"
   inkscape:window-maximized="1"
   inkscape:current-layer="レイヤー_1" />

<path
   style="opacity:0.9;fill:url(#linearGradient4642);fill-opacity:1;fill-rule:evenodd;stroke:none;stroke-width:0.83152485px;stroke-linecap:butt;stroke-linejoin:miter;stroke-opacity:1"
   d="m 2.383626,8.4146424 c 0,0 1.9664883,11.3285416 2.6035415,17.0385546 0.1817016,1.628621 0.3478214,3.265209 0.3467272,4.903934 -7.267e-4,1.088394 -0.220265,2.168441 -0.2346353,3.25674 -0.024167,1.830168 -0.015823,3.674351 0.2498334,5.485297 0.1404274,0.957275 0.3014983,1.881483 0.4361028,2.808098 0.067302,0.463308 0.1428267,0.925929 0.1761681,1.396162 l 0.1011359,1.426378 -0.014315,0.41862 -0.055457,0.433371 -0.071614,0.438383 -0.062787,0.433654 -0.028976,0.419185 0.029819,0.394976 0.1135991,0.361027 0.2223631,0.317337 0.2607849,-0.400904 -0.096515,-0.593323 0.2633315,0.865749 0.087675,-0.976017 0.040164,0.185584 -0.021217,0.421462 0.0501,0.362492 0.2541151,0.0087 0.1383088,-0.31881 0.1111474,0.224565 0.041683,-0.590493 0.1338333,0.586124 0.1640294,-0.488244 0.09179,-0.57451 -0.1417386,1.076967 0.3665157,-0.223957 0.1980598,-0.749423 -0.00924,0.419763 0.00131,0.4365 0.2588599,-0.3205 0.1482158,-0.328817 0.011579,0.50922 0.384482,-0.529581 -0.078201,0.447319 0.3621647,-0.592238 0.7693882,-2.034044 0.017601,-0.654577 -0.05792,-0.67788 C 9.8669755,42.51911 9.6146825,41.572476 9.6660565,40.694889 9.7569873,39.141581 10.054603,37.604597 10.137197,36.050823 10.258802,33.763148 10.234377,31.468264 10.172307,29.1782 10.133372,27.741222 9.9071953,26.310736 9.9167487,24.873261 9.959514,18.438284 14.719337,11.080769 11.316839,5.6187393 10.937458,5.0097182 10.037518,4.8507339 9.3210235,4.8123572 7.8256771,4.7322639 4.9997565,6.0407447 4.9997565,6.0407447"
   id="path4572"
   inkscape:connector-curvature="0"
   sodipodi:nodetypes="cssssssccccccccccccccccccccccccccccccccccccsssssssc" /><path
   style="opacity:0.9;fill:#001815;fill-opacity:1;fill-rule:evenodd;stroke:none;stroke-width:0.83152485px;stroke-linecap:butt;stroke-linejoin:miter;stroke-opacity:1"
   d="m 6.8875166,25.371502 c -0.3661037,0.615241 0.6256244,1.289058 0.8959107,1.952005 0.1896957,0.465278 0.3388904,0.946059 0.5083361,1.419088 0.1694448,0.47303 0.3388904,0.946058 0.5083348,1.419088 0.1694456,0.473029 0.06347,1.185506 0.5083361,1.419089 1.6622967,0.872805 3.6374767,-0.933777 5.4434397,-1.447112 2.083297,-0.592166 4.085693,-1.506921 6.21859,-1.883134 1.694049,-0.298806 3.44751,-0.05808 5.152759,-0.284385 1.380436,-0.183201 3.268605,0.260979 4.086927,-0.865749 0.454039,-0.625156 -0.287169,-1.533497 -0.244669,-2.304966 0.02053,-0.372692 0.166849,-0.727735 0.239799,-1.093794 0.08843,-0.443733 0.338631,-0.894494 0.2398,-1.336027 -0.09771,-0.436538 -0.36136,-0.92987 -0.777584,-1.093793 -2.32846,-0.917027 -4.931437,0.882976 -7.354301,1.509391 -1.9956,0.515949 -3.878885,1.448398 -5.900894,1.84852 -1.666563,0.329784 -3.383459,0.312797 -5.077298,0.44356 -1.4814169,0.114365 -3.6876805,-0.978641 -4.4474864,0.298219 z"
   id="path4574"
   inkscape:connector-curvature="0"
   sodipodi:nodetypes="sssssssssssssssss" /><path
   style="opacity:0.9;fill:url(#linearGradient4720);fill-opacity:1;fill-rule:evenodd;stroke:none;stroke-width:0.83152485px;stroke-linecap:butt;stroke-linejoin:miter;stroke-opacity:1"
   d="m 21.778028,3.4899284 c -0.360689,0.4315822 -0.198033,1.1236623 -0.131864,1.6822152 0.06936,0.5854815 0.368411,1.1201459 0.546392,1.6822151 0.335308,1.058907 0.784769,2.0910681 0.982415,3.1840693 0.70156,3.879699 0.554323,7.86739 0.691734,11.807616 0.08934,2.561813 -0.06004,5.130431 0.08615,7.68963 0.114549,2.005355 0.430094,3.994272 0.619063,5.993988 0.191708,2.028704 0.401394,4.056723 0.522169,6.090882 0.05145,0.866518 0.03947,1.735919 0.08615,2.602706 l 0.190977,0.766769 0.05495,0.393322 0.622525,1.738073 -0.301886,-1.296302 0.451466,1.435013 -0.3091,-1.59735 0.423358,1.707112 -0.198122,-1.482369 0.357323,1.60211 -0.11426,-1.987377 0.246847,2.12761 -0.02292,-1.918793 0.130957,2.13833 0.06334,-1.783522 0.08294,1.979779 0.128551,-1.859495 0.0037,1.608247 0.154674,-1.54095 -0.0046,1.395283 0.230634,-1.533509 -0.08142,1.329612 0.358714,-1.545902 -0.144039,1.328403 0.366237,-1.643061 -0.254037,1.496794 0.415681,-1.62193 -0.239575,1.30542 0.41375,-1.180766 0.06658,-0.38054 0.0679,-0.380335 c 0.04482,-0.253625 0.466598,-1.221243 0.502632,-1.476235 0.07212,-0.510365 0.39273,-1.461298 0.450721,-1.973462 0.05799,-0.512164 0.137653,-1.022336 0.173972,-1.536492 0.06399,-0.90592 0.09035,-1.815361 0.07708,-2.723442 -0.01399,-0.957742 -0.196626,-1.911455 -0.165156,-2.868782 0.02846,-0.865466 0.253771,-1.714652 0.319314,-2.578102 0.06874,-0.905572 0.05139,-1.815627 0.07708,-2.72344 0.02569,-0.907814 0.05139,-1.815628 0.07708,-2.723442 0.02569,-0.907814 0.108954,-1.815824 0.07707,-2.723442 -0.04271,-1.215756 -0.230407,-2.422125 -0.358943,-3.631821 -0.12702,-1.195423 -0.421276,-2.381302 -0.407391,-3.583374 0.02278,-1.971616 0.209149,-3.980431 0.803782,-5.860378 C 30.17669,9.7627236 30.790245,9.2592559 30.91775,8.5812288 31.01518,8.0631515 30.790318,7.5342079 30.752595,7.0084009 30.710415,6.4206005 30.707085,5.8306573 30.684335,5.2417855 30.661585,4.6529137 30.638825,4.064042 30.616075,3.4751701 30.593325,2.8862983 31.01123,2.0726067 30.547815,1.7085547 30.401208,1.5933826 30.182406,1.7827787 29.999701,1.8198904 l -0.548114,0.1113357 -0.548114,0.1113356 c -0.182704,0.037112 -0.361838,0.1036106 -0.548114,0.1113357 -0.524048,0.021733 -1.041083,-0.2398757 -1.562647,-0.184467 -0.903721,0.096007 -1.709943,0.6189222 -2.580031,0.8813648 -0.401656,0.1211507 -0.811563,0.2130439 -1.217345,0.319565 -0.405786,0.1065223 -0.948323,-0.00235 -1.217359,0.3195652 z"
   id="path4576"
   inkscape:connector-curvature="0"
   sodipodi:nodetypes="cssssssscccccccccccccccccccccccccccccccsssssssssssssssssssssssssc" /><path
   style="opacity:0.9;fill:url(#linearGradient4666);fill-opacity:1;fill-rule:evenodd;stroke:none;stroke-width:0.83152485px;stroke-linecap:butt;stroke-linejoin:miter;stroke-opacity:1"
   d="m 33.426877,6.7800386 c -0.12063,3.0462193 -0.306271,6.1033244 -0.104198,9.1452274 0.222562,3.350337 1.088412,6.630209 1.446104,9.968824 0.442788,4.132893 0.654829,10.899432 0.86474,12.439616 0.171877,1.261118 0.403006,2.749944 0.669048,4.063369 0.24042,1.186927 0.279344,2.40691 0.260739,3.191301 l 0.102415,0.420206 0.08785,0.463903 0.04415,-0.235251 0.14611,0.361943 0.02959,-0.351775 0.131544,0.391075 0.07328,-0.308078 0.05872,0.376508 0.09129,-0.271426 0.120422,0.384029 0.105856,-0.504478 0.04759,0.602514 0.164119,-0.519043 0.01846,0.369463 0.164114,-0.519043 0.03303,0.369463 0.211418,-0.451954 0.0512,0.247197 0.138589,-0.36456 0.0075,0.30546 0.167721,-0.451954 -0.02163,0.349157 0.517299,-0.961753 0.26968,-1.296764 c 0.157994,-0.759721 0.334209,-5.397454 0.272988,-8.809567 -0.05868,-3.270513 -0.352145,-6.53276 -0.487912,-9.80098 C 38.96631,21.955235 38.937203,18.523329 38.766119,15.097213 38.595559,11.681577 40.799776,6.9392727 38.08442,4.8602106 37.714574,4.5770314 37.170896,5.0429154 36.714135,5.1342677 36.257373,5.2256201 35.80948,5.3955036 35.343849,5.4083248 34.735826,5.4250667 34.010372,4.7668369 33.537543,5.149466 33.11406,5.4921629 33.448433,6.2356906 33.426877,6.7800386 Z"
   id="path4578"
   inkscape:connector-curvature="0"
   sodipodi:nodetypes="sssssscccccccccccccccccccccccsssssssss" /><path
   style="opacity:0.9;fill:#001815;fill-opacity:1;fill-rule:evenodd;stroke:none;stroke-width:0.83152485px;stroke-linecap:butt;stroke-linejoin:miter;stroke-opacity:1"
   d="m 38.08442,4.8602106 c 0.641599,-0.7170767 1.832278,-0.6418605 2.789016,-0.7443335 0.893275,-0.095676 1.794163,0.1001502 2.692123,0.127708 0.735611,0.022575 1.471876,0.014651 2.207655,0.030815 0.881409,0.019363 1.796286,-0.1640173 2.643677,0.079261 0.538911,0.1547163 1.065205,0.4432087 1.45198,0.8491243 0.408705,0.4289312 0.548114,1.0505518 0.822171,1.5758277 l 0.822171,1.5758276 c 0.274057,0.5252759 0.787284,0.9843847 0.822171,1.5758278 0.07109,1.2051205 -0.73226,2.3129305 -1.286154,3.3855775 -0.792709,1.535122 -1.768904,2.987154 -2.884903,4.306068 -0.682049,0.806063 -1.625337,1.365105 -2.30354,2.174406 -0.842181,1.004979 -2.961944,2.25271 -2.158198,3.288684 0.281123,0.362349 0.893582,-0.236276 1.30177,-0.445342 0.526415,-0.269619 0.937094,-0.727228 1.447112,-1.026706 0.491659,-0.288698 0.973852,-0.737254 1.544005,-0.736024 0.625115,0.0013 1.316347,0.312636 1.689345,0.814277 0.315454,0.424251 0.216558,1.038771 0.248113,1.566507 0.02251,0.376424 0.04418,0.763503 -0.04257,1.130485 -0.07074,0.299246 -0.176206,0.611057 -0.381697,0.839804 -0.261706,0.291324 -0.631553,0.502728 -1.011507,0.597569 -0.7847,0.195872 -2.423944,-0.10764 -2.423944,-0.10764 -0.920564,-0.04088 -1.938942,0.735688 -2.859965,0.764404 -0.986307,0.03075 -1.139445,-0.01264 -1.69724,0.08615 -0.849403,0.15043 -1.812193,1.319608 -2.472392,0.764403 -0.343628,-0.28898 0.105175,-0.807797 0.171286,-1.336028 0.05574,-0.445343 -0.370939,-0.119672 -0.458524,-1.529815 0,0 -0.251566,-0.806229 -0.07095,-1.142241 0.269396,-0.501161 1.087016,-0.439478 1.479352,-0.851558 0.835197,-0.877228 1.035836,-2.193996 1.656098,-3.23436 0.659825,-1.106722 1.606112,-2.036814 2.189013,-3.185913 0.578707,-1.140829 1.24168,-1.509305 1.734617,-2.689732 0.413859,-0.991063 1.458775,-1.887678 0.71471,-2.66218 -0.468395,-0.487554 -0.975089,-0.5397 -1.62372,-0.348961 -0.77382,0.227553 -1.588304,0.288813 -2.389687,0.380271 -0.889839,0.101554 -1.817996,-0.05527 -2.680368,0.186484 -0.705899,0.197886 -1.273797,1.284365 -1.953665,1.010081 -0.529348,-0.213559 -0.499123,-1.053267 -0.54954,-1.62184 -0.05406,-0.6096757 0.182713,-1.2104214 0.274065,-1.8156307 L 37.810362,6.6758408 C 37.901714,6.0706307 37.676296,5.3163457 38.08442,4.8602106 Z"
   id="path4580"
   inkscape:connector-curvature="0"
   sodipodi:nodetypes="sssssssssssssssssssssssssssssssssssssssss" /><path
   style="opacity:0.9;fill:#001815;fill-opacity:1;fill-rule:evenodd;stroke:none;stroke-width:0.83152485px;stroke-linecap:butt;stroke-linejoin:miter;stroke-opacity:1"
   d="m 52.472413,6.3675265 c -2.526758,4.8051525 -0.571969,10.8885675 0.0034,16.2869885 0.163139,1.53064 0.805136,2.984196 0.97238,4.514393 0.337201,3.085221 0.114909,6.207682 0.05189,9.310635 -0.06341,3.122381 -2.477975,6.999074 -0.432579,9.359082 0.372885,0.430239 1.142714,0.280493 1.700093,0.164399 0.345288,-0.07192 0.589621,-0.404511 0.924942,-0.513857 0.450074,-0.146767 1.021047,0.09597 1.409411,-0.174729 0.26252,-0.182986 0.362213,-0.542703 0.440474,-0.852986 0.772136,-3.061329 0.203953,-6.313197 0.165411,-9.470165 -0.05456,-4.468373 -0.691296,-8.927548 -0.561292,-13.394363 0.07719,-2.652106 0.557632,-5.277295 0.795222,-7.919865 0.263257,-2.928056 2.895839,-6.839026 0.698327,-8.791909 -0.487166,-0.4329334 -1.267824,0.3295704 -1.917391,0.3827059 -0.524635,0.042916 -1.054202,-0.1027651 -1.578262,-0.053317 -0.503966,0.047552 -1.017553,0.1314844 -1.481369,0.3342588 -0.44133,0.1929441 -0.966488,0.3924127 -1.190663,0.8187283 z"
   id="path4582"
   inkscape:connector-curvature="0"
   sodipodi:nodetypes="sssssssssssssssss" /><path
   style="opacity:0.9;fill:#001815;fill-opacity:1;fill-rule:evenodd;stroke:none;stroke-width:0.83152485px;stroke-linecap:butt;stroke-linejoin:miter;stroke-opacity:1"
   d="m 56.79914,25.399291 c 0.427247,-0.899838 1.753732,-0.945239 2.62747,-1.423602 0.537989,-0.294543 1.177556,-0.45582 1.610084,-0.890685 0.433207,-0.435546 0.500059,-1.137356 0.883382,-1.617389 0.554147,-0.693954 1.115747,-1.65842 1.99766,-1.762729 0.891503,-0.105442 1.654294,0.732317 2.379357,1.261637 0.840764,0.613783 1.672717,1.305454 2.234018,2.182127 0.314629,0.491407 0.348156,1.116753 0.586822,1.64921 0.165829,0.369958 0.389395,0.711228 0.584093,1.066841 0.194697,0.355613 0.503565,0.669495 0.584093,1.06684 0.110863,0.547032 0.10229,1.178053 -0.168852,1.665922 -0.351642,0.632718 -0.870937,1.236035 -1.136524,1.909421 -0.422589,1.071455 -0.05754,1.676069 -0.02478,2.827384 0.02836,0.996443 -0.183544,1.98574 -0.314192,2.973988 -0.114411,0.86543 -0.22801,1.732866 -0.411085,2.586413 -0.187342,0.873444 -0.701767,2.586413 -0.701767,2.586413 -0.309744,1.141586 -0.28161,2.492373 -0.362638,3.361564 0,0 0.68924,1.265016 0.20193,1.625872 -0.159279,0.117946 -0.397145,0.258923 -0.726563,0.353876 -0.384347,0.110785 -0.618791,0.141429 -1.051196,0.173077 -0.979287,0.07167 -0.863862,-0.04623 -1.247139,-0.205221 -0.400474,-0.166122 -0.710437,-0.391109 -0.937004,-0.661957 -0.322226,-0.385215 -0.147158,-0.997206 -0.147358,-1.499422 -5.34e-4,-1.343512 0.289562,-2.671849 0.391018,-4.011525 0.114559,-1.512694 0.159454,-3.029869 0.245677,-4.544442 0.07797,-1.369702 0.285132,-2.737067 0.245678,-4.108419 -0.03545,-1.232086 0.596321,-2.99368 -0.432579,-3.672398 -0.437328,-0.288485 -1.004875,0.296896 -1.507313,0.445344 l -1.507314,0.445342 c -0.502438,0.148447 -1.016811,0.261256 -1.507314,0.445343 -0.767292,0.287967 -1.549916,1.478001 -2.234017,1.026705 -0.362333,-0.239028 0.02284,-0.867847 0.03426,-1.301771 l 0.03426,-1.30177 c 0.01142,-0.433924 0.06924,-0.86911 0.03426,-1.301772 -0.03692,-0.456627 -0.452922,-0.936379 -0.256429,-1.350217 z"
   id="path4584"
   inkscape:connector-curvature="0"
   sodipodi:nodetypes="cssssssssssssssssssssssssssssssssssc" /><path
   style="opacity:0.9;fill:url(#linearGradient4682);fill-opacity:1;fill-rule:evenodd;stroke:none;stroke-width:0.83152485px;stroke-linecap:butt;stroke-linejoin:miter;stroke-opacity:1"
   d="m 71.930461,13.35598 c -0.408151,0.539052 -0.256414,1.350413 -0.171286,2.021171 0.07049,0.555424 0.559156,1.025281 0.555418,1.585148 -0.0058,0.872027 -0.227009,1.358479 -0.323466,2.225174 -0.04621,0.415232 -0.132176,0.967119 -0.18492,1.709267 l -0.08871,1.24817 0.270299,-1.047248 -0.204032,1.161672 0.432844,-0.952853 -0.367227,1.149487 0.493366,-0.775686 -0.423449,1.07907 0.771419,-0.953946 -0.62181,1.11204 0.857561,-0.89387 -0.74935,0.999609 1.263921,-1.151425 -0.923338,0.981279 1.206829,-0.859677 -0.910088,0.85559 1.244336,-0.800352 -0.924307,0.716531 1.085173,-0.620159 0.499057,-0.4411 0.466183,-0.503008 c 0.47406,-0.511507 0.872908,-1.088653 1.336028,-1.610085 0.491622,-0.553522 1.136057,-0.983162 1.529816,-1.610086 0.305212,-0.485942 0.623707,-1.036423 0.609324,-1.610085 -0.01261,-0.503092 -0.266475,-1.010598 -0.604455,-1.383466 -0.58999,-0.650891 -1.504456,-0.914146 -2.300096,-1.286573 -0.759189,-0.355363 -1.510305,-0.896322 -2.348544,-0.898997 -0.525716,-0.0017 -1.15915,0.13528 -1.476499,0.554408 z"
   id="path4586"
   inkscape:connector-curvature="0"
   sodipodi:nodetypes="ssssscccccccccccccccccccssssssss" /><path
   style="opacity:0.9;fill:url(#linearGradient4690);fill-opacity:1;fill-rule:evenodd;stroke:none;stroke-width:0.83152485px;stroke-linecap:butt;stroke-linejoin:miter;stroke-opacity:1"
   d="m 70.986459,27.533561 c -0.136931,0.850222 0.651976,1.613621 0.766838,2.467105 0.329573,2.448896 -0.117993,4.941271 -0.250547,7.408687 -0.09635,1.793574 0.623586,3.77172 0.798854,5.559309 0.117565,1.199077 -0.105066,0.879604 0.383853,1.980763 l 0.271261,0.984137 0.353125,0.845511 -0.03132,-0.54122 0.15816,0.356668 -0.01153,-0.461899 0.207248,0.583775 0.05201,-0.612724 0.09952,0.470079 0.155143,-0.573674 0.05207,0.64744 0.159158,-0.666524 0.0026,0.500285 0.184937,-0.580623 -0.03479,0.546279 0.322267,-0.770276 0.226164,-1.337451 c 0.238713,-1.411664 0.277164,-2.061039 0.44901,-3.029215 0.133936,-0.754585 0.6883,-4.286206 0.740809,-6.372019 0.04406,-1.750287 0.0535,-3.514527 0.342571,-5.24134 0.243734,-1.455972 1.785182,-2.93222 1.166169,-4.272402 -0.201008,-0.435188 -0.827588,-0.540855 -1.30177,-0.611168 -0.708177,-0.10501 -1.434048,0.123266 -2.125369,0.309322 -0.686639,0.184796 -1.42077,0.354639 -1.980027,0.793791 -0.52126,0.409317 -1.051049,0.963058 -1.15643,1.617387 z"
   id="path4588"
   inkscape:connector-curvature="0"
   sodipodi:nodetypes="csssscccccccccccccccsssssssssc" /><path
   style="opacity:0.9;fill:url(#linearGradient4698);fill-opacity:1;fill-rule:evenodd;stroke:none;stroke-width:0.67177224px;stroke-linecap:butt;stroke-linejoin:miter;stroke-opacity:1"
   d="m 82.986011,18.215734 c 0,0 1.547474,2.195272 1.864011,3.469332 0.341141,1.373109 0.005,2.829953 -0.02544,4.244482 -0.0237,1.108494 -0.143646,2.21545 -0.122309,3.323992 0.02262,1.175704 0.290318,2.342123 0.265265,3.517778 -0.0168,0.788962 0.38261,2.261264 0.362454,3.050148 -0.03243,1.270553 0.174125,1.922707 0.225356,3.192643 0.05895,1.460873 0.207645,1.884439 0.308317,3.103985 0.0717,0.868556 0.286022,2.004683 0.419136,2.523885 l 0.124926,0.487267 0.124926,0.487268 0.124926,0.487267 0.292431,0.429004 -0.05711,-0.591278 0.212357,0.74148 -0.02069,-0.56943 0.190507,0.675935 0.03028,-0.656824 0.0521,0.756047 0.17594,-0.656825 -0.03526,0.50843 0.217339,-0.592349 -0.03028,0.456379 0.19549,-0.59235 -0.07397,0.551055 0.220979,-0.497672 -0.01936,0.449095 0.235555,-0.497672 -0.07762,0.398115 0.243938,-0.489044 -0.06922,0.377613 0.236657,-0.532742 0.243941,-0.496328 0.01817,-0.237786 0.01817,-0.237787 0.01817,-0.237786 0.01817,-0.237787 c 0.04834,-0.632481 0.184732,-1.931391 0.11688,-2.562075 -0.06785,-0.630685 0.354839,-1.855222 0.335356,-2.489247 -0.03576,-1.16427 0.106527,-2.327201 0.159786,-3.490801 0.05322,-1.1636 0.148128,-2.326041 0.159777,-3.490801 0.0138,-1.382 -0.110243,-2.762771 -0.106676,-4.144835 0.0042,-1.46305 0.106726,-2.924299 0.135563,-4.387069 0.02977,-1.510565 -0.273679,-3.05419 0.03867,-4.532409 0.132944,-0.629191 1.021587,-1.181101 0.765369,-1.770937 -0.187118,-0.430746 -0.863746,-0.395279 -1.326706,-0.474169 -0.595156,-0.101418 -1.20853,-0.02598 -1.811178,0.0103 -0.483049,0.02908 -0.959987,0.206035 -1.442246,0.16594 -0.498574,-0.04145 -0.942026,-0.40643 -1.442239,-0.415422 -0.561969,-0.0101 -1.636023,0.408175 -1.636023,0.408175"
   id="path4572-1"
   inkscape:connector-curvature="0"
   sodipodi:nodetypes="csssssssscccccccccccccccccccccccccccsssssssssssssc" /><path
   style="opacity:0.9;fill:url(#linearGradient4706);fill-opacity:1;fill-rule:evenodd;stroke:none;stroke-width:0.75973284px;stroke-linecap:butt;stroke-linejoin:miter;stroke-opacity:1"
   d="m 102.54474,16.632989 c 0,0 0.54189,1.766656 1.25354,2.243577 0.48472,0.324845 1.32062,-0.198945 1.73801,0.208807 1.28738,1.257661 0.64142,3.548966 0.76907,5.344178 0.14352,2.018531 -0.0384,4.047516 -0.006,6.070881 0.0256,1.587116 0.52907,3.348181 0.59504,4.934131 0.0438,1.053937 0.34095,2.813916 0.47853,3.859749 0.23325,1.772571 0.81833,2.994467 1.03962,4.661185 0.0595,0.448024 0.20958,0.589126 0.30251,1.03143 l 0.13748,0.654414 0.22683,0.67888 -0.20936,-1.611707 0.27035,1.653745 -0.10291,-1.62914 0.19456,1.680841 -0.0426,-1.637958 0.14261,1.719153 0.0316,-1.549166 0.0483,1.627886 0.1957,-1.423952 -0.0967,1.322669 0.23976,-1.336671 -0.0938,1.283137 0.28813,-1.280698 -0.1845,1.264794 0.45465,-1.38657 -0.35566,1.299351 0.3121,-0.636763 0.24294,-0.547143 c 0.30971,-0.697536 0.45117,-1.17467 0.55436,-1.617127 0.1528,-0.655157 0.504,-2.481631 0.49912,-3.154352 -0.009,-1.239184 0.2742,-2.46517 0.32654,-3.703279 0.0515,-1.217198 0.0114,-2.436785 -0.0126,-3.654831 -0.0289,-1.461176 -0.13987,-2.920188 -0.15794,-4.381536 -0.0131,-1.056774 0.0412,-2.113522 0.0358,-3.170363 -0.005,-0.943952 -0.0387,-1.887536 -0.061,-2.831235 -0.0335,-1.412139 -0.24087,-2.829781 -0.10949,-4.236194 0.10515,-1.125677 0.79813,-2.188252 0.71411,-3.315703 -0.0235,-0.315614 -0.0654,-0.723 -0.33527,-0.888302 -0.58085,-0.355761 -1.35663,0.129507 -2.03091,0.225977 -0.67906,0.09715 -1.37898,0.130185 -2.02705,0.35506 -0.62126,0.215573 -1.08993,0.815783 -1.73636,0.936423 -0.8455,0.157791 -2.55996,-0.323196 -2.55996,-0.323196"
   id="path4572-4"
   inkscape:connector-curvature="0"
   sodipodi:nodetypes="csssssssscccccccccccccccccccssssssssssssssc" /><path
   style="opacity:0.9;fill:#001815;fill-opacity:1;fill-rule:evenodd;stroke:none;stroke-width:0.83152485px;stroke-linecap:butt;stroke-linejoin:miter;stroke-opacity:1"
   d="m 77.197568,29.681014 c -0.130135,0.147205 -0.06068,0.388247 -0.09102,0.582371 -0.03034,0.194124 -0.100518,0.386121 -0.09102,0.582371 0.01292,0.26683 0.13311,0.51744 0.199665,0.776159 0.06656,0.25872 0.156588,0.512512 0.199665,0.776159 0.04052,0.24801 0.03621,0.50129 0.05432,0.751935 0.01811,0.250644 -0.03425,0.516765 0.05432,0.751935 0.100122,0.265824 0.343046,0.452843 0.51457,0.679265 0.171523,0.226422 0.232997,0.641798 0.51457,0.679265 0.377895,0.05028 0.603305,-0.466221 0.904966,-0.699332 0.301652,-0.233111 0.581908,-0.496908 0.904956,-0.699332 0.919774,-0.576341 1.888268,-1.09964 2.915509,-1.45026 1.327295,-0.453035 2.736663,-0.633845 4.126681,-0.820449 1.005713,-0.135013 2.045285,0.0018 3.036621,-0.214864 0.871072,-0.190379 1.656406,-0.663906 2.503704,-0.941567 1.046865,-0.34306 2.082338,-0.826495 3.181972,-0.893119 0.242015,-0.01466 0.47929,0.07371 0.718936,0.110579 0.239645,0.03686 0.502058,0.0022 0.718936,0.110579 0.716916,0.358388 0.917322,1.698672 1.718654,1.681661 0.294268,-0.0062 0.387499,-0.444777 0.604369,-0.643791 0.264858,-0.24305 0.738828,-0.325078 0.846608,-0.668014 0.17596,-0.559948 -0.4288,-1.104082 -0.50991,-1.685398 -0.0643,-0.460508 0.16883,-0.953199 0.023,-1.394718 -0.25395,-0.769009 -1.033712,-1.251087 -1.478852,-1.927633 -0.141277,-0.214714 -0.250722,-0.448756 -0.376074,-0.673135 -0.125361,-0.224378 -0.130475,-0.597348 -0.376066,-0.673135 -0.366652,-0.113145 -0.686739,0.342542 -1.030109,0.513814 -0.34337,0.171271 -0.662775,0.402888 -1.030101,0.513813 -0.588504,0.177715 -1.228346,0.102191 -1.830112,0.227836 -0.54035,0.112821 -1.054232,0.328925 -1.58788,0.470071 -0.838077,0.221663 -1.695446,0.366048 -2.532591,0.591187 -0.705591,0.189758 -1.38745,0.463555 -2.096574,0.639634 -0.802513,0.199267 -1.623802,0.313381 -2.435702,0.470071 -0.811901,0.15669 -1.641256,0.24074 -2.435693,0.47007 -1.120197,0.323363 -2.154298,0.897496 -3.259302,1.269444 -0.847948,0.285421 -1.988474,0.06621 -2.581061,0.736528 z"
   id="path4574-0"
   inkscape:connector-curvature="0"
   sodipodi:nodetypes="ssssssssssssssssssssssssssssssssssss" /><path
   style="opacity:0.9;fill:#001815;fill-opacity:1;fill-rule:evenodd;stroke:none;stroke-width:0.83152485px;stroke-linecap:butt;stroke-linejoin:miter;stroke-opacity:1"
   d="m 98.483761,30.042226 c -0.201079,0.192652 -0.206019,0.517439 -0.309028,0.776159 -0.103009,0.258719 -0.365854,0.503545 -0.309028,0.776157 0.05155,0.247525 0.359194,0.35595 0.538795,0.533925 0.179593,0.177975 0.416935,0.312381 0.538786,0.533925 0.131631,0.239317 0.116963,0.533588 0.175444,0.800382 0.05846,0.266794 -0.0083,0.598281 0.175443,0.800382 0.178238,0.19607 0.504536,0.162161 0.756807,0.243243 0.25227,0.08108 0.49728,0.296761 0.7568,0.243242 0.37119,-0.07655 0.57101,-0.49852 0.85651,-0.747779 0.28551,-0.24926 0.53567,-0.546035 0.85652,-0.747779 0.65711,-0.413184 1.4269,-0.611562 2.14036,-0.917343 0.71345,-0.305781 1.39077,-0.715764 2.14036,-0.917343 1.35377,-0.364057 2.78341,-0.337031 4.17512,-0.505546 1.3917,-0.168515 2.77435,-0.450043 4.17513,-0.505544 1.198,-0.04747 2.46809,-0.264198 3.59376,0.148488 0.96421,0.353488 1.41187,2.018801 2.43104,1.892577 0.58533,-0.07249 0.79378,-0.884024 1.08884,-1.394718 0.26838,-0.46451 0.48174,-0.969348 0.60437,-1.491611 0.0714,-0.304127 0.0477,-0.622981 0.0714,-0.934472 0.0238,-0.31149 0.0946,-0.622933 0.0714,-0.934471 -0.0486,-0.653821 -0.11396,-1.347698 -0.43846,-1.917391 -0.55194,-0.969 -1.3728,-1.934898 -2.42478,-2.304965 -0.9868,-0.347143 -2.10943,0.02056 -3.1273,0.261884 -1.78742,0.423759 -3.34013,1.575774 -5.11364,2.054419 -1.09945,0.296726 -2.25808,0.301409 -3.38041,0.494294 -1.08336,0.186185 -2.20415,0.258188 -3.23508,0.639634 -1.23938,0.458576 -2.24905,1.403009 -3.45308,1.9477 -1.07968,0.488439 -2.500467,0.352731 -3.356139,1.172551 z"
   id="path4574-3"
   inkscape:connector-curvature="0"
   sodipodi:nodetypes="sssssssssssssssssssssssssssss" /></svg>